<svg width="24" height="24" viewBox="0 0 24 24" fill="none" xmlns="http://www.w3.org/2000/svg">
<path d="M7.86361 4.24352C8.99401 3.49625 10.3057 3.06919 11.6594 3.00772C13.0131 2.94626 14.3581 3.25269 15.5516 3.89445C16.7451 4.53621 17.7424 5.48932 18.4375 6.65249C19.1327 7.81567 19.4997 9.14545 19.4996 10.5005C19.4996 13.4205 18.9436 16.2095 17.9316 18.7685M5.74161 6.36452C4.92917 7.59072 4.49708 9.0296 4.49961 10.5005C4.50197 11.9135 4.10318 13.2982 3.34961 14.4935M5.33861 18.0525C7.21563 15.9856 8.2537 13.2926 8.24961 10.5005C8.24961 9.50596 8.6447 8.55214 9.34796 7.84887C10.0512 7.14561 11.005 6.75052 11.9996 6.75052C12.9942 6.75052 13.948 7.14561 14.6513 7.84887C15.3545 8.55214 15.7496 9.50596 15.7496 10.5005C15.7496 11.0275 15.7286 11.5495 15.6856 12.0655M11.9996 10.5005C12.0052 14.0766 10.7278 17.5361 8.39961 20.2505M15.0326 15.6545C14.4911 17.5513 13.6524 19.3503 12.5476 20.9845" stroke="white" stroke-width="1.5" stroke-linecap="round" stroke-linejoin="round"/>
</svg>
