<svg width="49" height="49" viewBox="0 0 49 49" fill="none" xmlns="http://www.w3.org/2000/svg">
<path fill-rule="evenodd" clip-rule="evenodd" d="M22.2417 0.493843C21.7672 0.763055 20.6242 1.73306 19.7014 2.64927L18.0238 4.31546V20.0283C18.0238 35.485 18.0175 35.7475 17.6403 36.1255C17.2835 36.4831 17.0013 36.5098 13.5674 36.5098H9.878L15.5325 42.1873C21.0321 47.7089 21.7684 48.3718 22.8669 48.7904L23.3921 48.9904V24.4952C23.3921 11.0229 23.3273 0.000960784 23.2483 0.00230588C23.1693 0.00365098 22.7162 0.224824 22.2417 0.493843ZM25.6928 24.5C25.6928 37.975 25.7394 49 25.7963 49C26.3887 49 28.2118 47.364 33.1689 42.3837L39.0153 36.5098H35.4216C32.0835 36.5098 31.8007 36.4825 31.4445 36.1255C31.0674 35.7475 31.061 35.485 31.061 20.0197V4.29816L29.2876 2.55915C27.8201 1.12027 26.2919 0 25.7963 0C25.7394 0 25.6928 11.025 25.6928 24.5ZM12.9885 9.37015L10.3548 12.0148V20.5152C10.3548 28.7595 10.3433 29.0272 9.97137 29.4C9.61841 29.7538 9.33235 29.7843 6.37961 29.7843H3.17148L5.36999 31.9941L7.56849 34.2039H11.6459H15.7231V20.4647C15.7231 12.9081 15.7003 6.72549 15.6727 6.72549C15.6449 6.72549 14.437 7.91552 12.9885 9.37015ZM33.3617 20.4192V34.2039H37.3431H41.3246L43.5231 31.9941L45.7216 29.7843H42.6094C39.7525 29.7843 39.4655 29.7528 39.1135 29.4C38.7415 29.0272 38.73 28.7595 38.73 20.5102V12.0046L36.0459 9.31961L33.3617 6.6346V20.4192ZM4.36861 18.0147C1.89288 20.5087 0.671975 21.8838 0.40126 22.4824C-0.145538 23.6914 -0.132117 25.4016 0.433086 26.5249L0.864466 27.3824L4.4593 27.4346L8.05413 27.4869V20.9493C8.05413 17.3537 8.02959 14.4118 7.99949 14.4118C7.96958 14.4118 6.3357 16.0332 4.36861 18.0147ZM41.0336 20.9013L41.0307 27.4869L44.6069 27.4346L48.1832 27.3824L48.5852 26.6137C49.1226 25.5865 49.1414 23.2758 48.6205 22.2902C48.4249 21.9203 46.6387 19.9747 44.6507 17.9667L41.0363 14.3157L41.0336 20.9013Z" fill="#15CC5D"/>
</svg>
