<svg width="24" height="25" viewBox="0 0 24 25" fill="none" xmlns="http://www.w3.org/2000/svg">
<path d="M15.59 14.7489C15.7982 15.63 15.8044 16.5468 15.608 17.4305C15.4116 18.3143 15.0177 19.1422 14.4559 19.8521C13.8941 20.5621 13.1789 21.1357 12.364 21.53C11.549 21.9243 10.6553 22.129 9.75 22.1289V17.3289M15.59 14.7489C17.4999 13.3577 19.0536 11.5344 20.1242 9.42799C21.1947 7.32157 21.7519 4.99178 21.75 2.62891C19.3873 2.6272 17.0577 3.1844 14.9515 4.25498C12.8452 5.32556 11.0221 6.87916 9.631 8.78891M15.59 14.7489C13.8519 16.0202 11.8603 16.9003 9.75 17.3289M9.75 17.3289C9.647 17.3499 9.543 17.3699 9.439 17.3889C8.53179 16.6695 7.71038 15.8481 6.991 14.9409C7.00989 14.8367 7.02889 14.7327 7.05 14.6289M9.631 8.78891C8.74986 8.58051 7.83298 8.57423 6.94907 8.77055C6.06516 8.96687 5.23714 9.3607 4.52707 9.92252C3.817 10.4843 3.2433 11.1996 2.84895 12.0146C2.4546 12.8297 2.24984 13.7235 2.25 14.6289H7.05M9.631 8.78891C8.35988 10.5267 7.47875 12.519 7.05 14.6289M4.811 17.0189C4.15318 17.5081 3.64173 18.1679 3.33202 18.9269C3.02232 19.6859 2.92618 20.5152 3.054 21.3249C3.86383 21.4526 4.69316 21.3563 5.45218 21.0464C6.21119 20.7366 6.87095 20.2249 7.36 19.5669M16.5 9.37891C16.5 9.77673 16.342 10.1583 16.0607 10.4396C15.7794 10.7209 15.3978 10.8789 15 10.8789C14.6022 10.8789 14.2206 10.7209 13.9393 10.4396C13.658 10.1583 13.5 9.77673 13.5 9.37891C13.5 8.98109 13.658 8.59955 13.9393 8.31825C14.2206 8.03695 14.6022 7.87891 15 7.87891C15.3978 7.87891 15.7794 8.03695 16.0607 8.31825C16.342 8.59955 16.5 8.98109 16.5 9.37891Z" stroke="black" stroke-width="1.5" stroke-linecap="round" stroke-linejoin="round"/>
</svg>
